<svg id="visual" viewBox="0 0 2828 200" width="2828" height="200" xmlns="http://www.w3.org/2000/svg" xmlns:xlink="http://www.w3.org/1999/xlink" version="1.1"><rect x="0" y="0" width="2828" height="200" fill="#ffffff"></rect><path d="M0 164L47.2 164.3C94.3 164.7 188.7 165.3 283 163.7C377.3 162 471.7 158 565.8 161C660 164 754 174 848.2 176.2C942.3 178.3 1036.7 172.7 1131 165.3C1225.3 158 1319.7 149 1414 145.2C1508.3 141.3 1602.7 142.7 1697 149.7C1791.3 156.7 1885.7 169.3 1979.8 175.2C2074 181 2168 180 2262.2 178.8C2356.3 177.7 2450.7 176.3 2545 167.3C2639.3 158.3 2733.7 141.7 2780.8 133.3L2828 125L2828 201L2780.8 201C2733.7 201 2639.3 201 2545 201C2450.7 201 2356.3 201 2262.2 201C2168 201 2074 201 1979.8 201C1885.7 201 1791.3 201 1697 201C1602.7 201 1508.3 201 1414 201C1319.7 201 1225.3 201 1131 201C1036.7 201 942.3 201 848.2 201C754 201 660 201 565.8 201C471.7 201 377.3 201 283 201C188.7 201 94.3 201 47.2 201L0 201Z" fill="#f6f6f6" stroke-linecap="round" stroke-linejoin="miter"></path></svg>